# xmcd CD database file
#
# Track frame offsets:
#	150
#	20432
#	33870
#	49410
#	63287
#	79555
#	93397
#	109790
#	121052
#	135440
#
# Disc length: 1959 seconds
#
# Revision: 0
# Processed by: cddbd v1.5.2PL0 Copyright (c) Steve Scherf et al.
# Submitted via: CDex 1.51
#
DISCID=7407a50a
DTITLE=Jerry Cormier - Downtown Montréal
DYEAR=1900
DGENRE=crooner
TTITLE0=Downtown Montréal
TTITLE1=joue-moi du Zydeco
TTITLE2=t'envoler
TTITLE3=Tracadie au paradis
TTITLE4=perdu avec le temps
TTITLE5=le train de minuit
TTITLE6=fou de toi
TTITLE7=chère Marie0Lou
TTITLE8=j'ai les blues madame
TTITLE9=clin d'oeil aux îles
EXTD=
EXTT0=
EXTT1=
EXTT2=
EXTT3=
EXTT4=
EXTT5=
EXTT6=
EXTT7=
EXTT8=
EXTT9=
PLAYORDER=
